<!DOCTYPE svg PUBLIC "-//W3C//DTD SVG 20010904//EN" "http://www.w3.org/TR/2001/REC-SVG-20010904/DTD/svg10.dtd">
<svg version="1.0" xmlns="http://www.w3.org/2000/svg" width="1093px" height="347px" viewBox="0 0 10930 3470" preserveAspectRatio="xMidYMid meet">
<g id="layer101" fill="#000000" stroke="none">
<path d="M8561 2508 c-5 -18 -51 -168 -101 -333 -169 -553 -280 -906 -294 -934 -30 -56 -108 -111 -160 -111 -38 0 -46 -18 -34 -77 l11 -53 147 0 c81 0 228 -5 325 -11 97 -5 179 -8 182 -5 3 2 1 28 -4 58 l-8 53 -75 12 c-89 14 -75 10 -94 29 -24 23 -20 78 18 226 51 202 229 828 235 828 3 0 82 -192 175 -425 l169 -425 -18 -47 c-39 -102 -104 -163 -173 -163 -40 0 -45 -11 -37 -76 l6 -54 202 0 c111 0 258 -5 326 -10 69 -5 127 -8 129 -5 3 3 1 31 -4 62 l-9 58 -65 8 c-91 11 -114 24 -118 67 -2 20 15 105 37 190 53 211 221 803 230 812 9 10 307 -731 356 -885 47 -148 34 -167 -128 -175 -56 -3 -105 -9 -108 -14 -5 -8 6 -107 13 -113 2 -1 137 0 300 3 l298 5 -7 41 c-9 64 -21 86 -42 86 -33 0 -86 55 -123 127 -20 38 -140 324 -268 638 -128 314 -238 575 -244 582 -11 11 -176 66 -181 61 -2 -2 -228 -739 -291 -952 -3 -10 -9 -14 -14 -10 -4 5 -85 207 -180 449 -95 242 -178 445 -184 452 -6 6 -42 21 -81 32 -38 12 -77 24 -87 27 -12 3 -19 -4 -27 -28z"/>
<path d="M4349 2505 c-350 -70 -559 -406 -509 -819 36 -301 190 -531 435 -652 106 -52 203 -74 323 -74 148 0 374 44 385 74 3 7 -1 39 -9 72 -22 94 -43 223 -50 311 -7 80 -7 81 -37 87 -16 3 -46 6 -67 6 l-37 0 -7 -86 c-14 -187 -100 -276 -267 -275 -122 0 -202 33 -278 116 -86 93 -124 221 -125 420 -1 373 162 605 428 606 87 1 172 -19 291 -65 49 -20 95 -36 101 -36 8 0 44 91 44 112 0 9 -180 123 -247 156 -122 62 -230 76 -374 47z"/>
<path d="M6965 2510 c-223 -47 -394 -222 -467 -475 -20 -69 -23 -103 -23 -240 0 -136 3 -173 23 -243 41 -151 108 -268 215 -376 135 -137 289 -204 482 -213 160 -7 284 28 405 115 256 184 342 621 193 977 -88 210 -281 384 -488 440 -69 19 -280 28 -340 15z m393 -195 c97 -53 169 -156 208 -296 28 -97 25 -345 -4 -454 -78 -288 -259 -442 -486 -413 -144 19 -251 126 -308 308 -20 67 -23 94 -22 245 0 155 3 178 27 258 61 199 155 314 300 368 81 30 215 23 285 -16z"/>
</g>
<g id="layer102" fill="#162d36" stroke="none">
<path d="M1626 3259 c-380 -40 -745 -220 -1019 -504 -62 -63 -117 -136 -117 -155 0 -6 40 24 88 67 174 154 358 267 550 339 81 31 104 30 30 -1 -173 -71 -365 -193 -461 -291 -158 -162 -325 -383 -365 -484 -28 -71 -78 -269 -103 -410 -16 -89 -17 -368 -1 -460 24 -135 63 -262 112 -365 103 -214 146 -205 76 16 -59 185 -70 254 -70 459 -1 159 2 200 22 290 64 286 209 540 426 748 95 91 245 194 358 247 197 90 602 137 783 89 44 -12 -156 -33 -317 -33 -144 -1 -186 -8 -348 -58 -232 -71 -386 -172 -542 -356 -92 -109 -138 -180 -203 -312 -154 -314 -173 -712 -51 -1033 71 -185 141 -300 268 -442 101 -111 186 -182 300 -251 83 -49 213 -98 226 -84 8 8 -2 16 -124 95 -102 66 -288 251 -319 317 -9 21 -28 49 -40 63 -27 30 -159 311 -175 372 -6 24 -14 52 -17 63 -5 17 -2 16 15 -5 12 -14 21 -21 22 -17 1 22 -26 105 -42 132 -15 25 -18 52 -18 167 0 83 6 165 15 208 16 77 61 218 75 235 4 5 22 43 39 84 31 73 103 184 137 212 10 7 4 -4 -13 -26 -31 -39 -113 -178 -113 -191 0 -3 7 -4 15 0 25 9 17 -21 -10 -41 -20 -15 -31 -43 -60 -153 -63 -243 -65 -384 -11 -617 43 -181 89 -282 204 -443 69 -97 117 -146 221 -224 195 -148 328 -215 517 -263 101 -26 123 -28 309 -28 216 0 296 11 445 62 143 49 278 128 256 150 -4 5 -50 -7 -102 -25 -182 -64 -284 -84 -451 -87 -121 -2 -155 0 -164 11 -6 8 -30 14 -54 14 -80 0 -327 74 -289 87 6 2 50 -8 98 -22 126 -36 194 -45 347 -45 210 0 357 32 534 115 190 90 311 188 434 351 94 126 158 246 202 379 31 94 33 109 35 260 1 88 0 154 -3 148 -11 -29 -23 -10 -22 35 2 46 2 46 9 12 4 -19 8 -30 9 -25 1 6 9 -2 17 -17 17 -33 28 -35 51 -9 56 66 87 225 81 412 -4 116 -9 147 -36 229 -96 287 -362 615 -632 777 -309 186 -680 269 -1034 232z m362 -446 c-21 -2 -57 -2 -80 0 -24 2 -7 4 37 4 44 0 63 -2 43 -4z m-1119 -645 c-22 -40 -49 -82 -60 -93 -20 -20 32 79 73 138 33 47 28 30 -13 -45z m2268 -810 c-12 -81 -25 -130 -37 -138 -4 -3 -15 -18 -24 -35 -10 -16 -14 -21 -10 -10 46 132 64 189 64 205 0 11 3 20 6 20 4 0 4 -19 1 -42z m-1657 -903 c0 -14 -32 -2 -57 20 l-28 26 43 -21 c23 -11 42 -23 42 -25z"/>
<path d="M8550 2468 c-35 -115 -256 -835 -316 -1026 -30 -95 -61 -186 -69 -202 -31 -59 -104 -110 -158 -110 -37 0 -45 -18 -34 -77 l9 -53 148 0 c81 0 228 -5 325 -11 97 -5 179 -8 182 -5 3 2 1 28 -4 58 l-8 53 -75 12 c-89 14 -75 10 -94 29 -35 34 -19 109 141 677 59 207 109 377 112 377 3 0 82 -192 175 -426 167 -418 169 -426 157 -462 -35 -99 -111 -172 -179 -172 -40 0 -45 -11 -37 -76 l6 -54 202 0 c111 0 258 -5 326 -10 69 -5 127 -8 129 -5 3 3 1 31 -4 62 l-9 58 -65 8 c-91 11 -114 24 -118 67 -2 20 15 107 37 193 55 216 221 800 230 810 4 4 42 -79 84 -185 41 -106 108 -272 147 -368 89 -221 150 -397 150 -438 0 -50 -33 -65 -155 -70 -64 -3 -105 -9 -108 -16 -2 -6 1 -35 6 -65 l9 -54 91 7 c49 3 184 6 299 6 l208 0 -6 43 c-10 65 -21 87 -43 87 -39 0 -93 62 -137 155 -23 50 -140 329 -259 620 -120 292 -223 542 -230 556 -11 20 -32 31 -101 52 -48 15 -88 26 -90 25 -1 -2 -63 -205 -138 -453 -76 -247 -142 -465 -148 -483 -5 -19 -14 -30 -18 -25 -4 4 -85 206 -180 448 -95 242 -178 445 -184 452 -6 6 -44 21 -85 33 -40 12 -79 24 -87 27 -9 3 -19 -18 -34 -69z"/>
<path d="M4345 2505 c-341 -71 -547 -396 -506 -800 12 -122 37 -215 80 -305 136 -279 383 -440 679 -440 142 0 374 45 385 74 3 7 -1 39 -9 72 -22 94 -43 223 -50 311 -7 80 -7 81 -37 87 -16 3 -46 6 -67 6 l-37 0 -7 -86 c-14 -187 -100 -276 -267 -275 -121 0 -202 34 -276 114 -90 98 -127 220 -126 422 0 163 16 250 67 360 35 76 105 160 160 194 123 75 285 70 495 -15 47 -19 90 -34 96 -34 6 0 19 25 29 56 17 54 17 56 -1 70 -52 41 -208 132 -278 163 -69 30 -92 35 -170 38 -50 1 -121 -4 -160 -12z"/>
<path d="M6980 2513 c-111 -18 -215 -76 -310 -172 -84 -86 -134 -173 -172 -306 -20 -69 -23 -103 -23 -240 0 -136 3 -173 23 -243 53 -197 171 -367 324 -468 85 -57 160 -88 257 -109 322 -68 609 84 729 385 41 103 55 187 54 330 0 111 -4 152 -25 230 -97 371 -388 604 -745 599 -48 -1 -98 -4 -112 -6z m378 -198 c159 -86 241 -289 229 -560 -18 -390 -230 -639 -510 -603 -78 10 -138 41 -196 103 -57 60 -80 103 -112 205 -21 67 -24 93 -23 245 1 155 3 178 28 260 48 158 117 261 216 325 75 48 122 60 225 57 77 -2 97 -7 143 -32z"/>
<path d="M5280 2469 c0 -9 3 -37 6 -63 7 -45 8 -47 50 -57 24 -6 55 -23 69 -36 47 -48 50 -75 50 -568 0 -408 -2 -464 -17 -497 -24 -53 -56 -71 -123 -66 -60 3 -65 -1 -65 -55 0 -73 -4 -70 188 -112 97 -21 198 -43 225 -48 29 -7 51 -7 56 -1 6 5 4 49 -5 114 -8 58 -13 136 -12 174 l3 69 39 -57 c51 -75 177 -192 256 -238 35 -21 88 -42 117 -48 64 -14 152 -4 160 16 3 8 -2 65 -11 127 -8 61 -21 164 -27 227 -6 63 -13 117 -15 119 -2 3 -31 7 -63 9 l-59 4 -7 -58 c-11 -106 -16 -124 -38 -145 -18 -17 -30 -20 -65 -15 -23 3 -55 12 -71 20 -52 27 -130 95 -170 148 l-39 53 -11 250 c-15 345 -14 487 4 531 21 52 65 67 187 62 111 -3 105 -10 83 90 l-15 67 -340 0 c-308 1 -340 -1 -340 -16z"/>
</g>
<g id="layer103" fill="#423e3b" stroke="none">
<path d="M1626 3259 c-380 -40 -745 -220 -1019 -504 -62 -63 -117 -136 -117 -155 0 -6 40 24 88 67 174 154 358 267 550 339 81 31 104 30 30 -1 -173 -71 -365 -193 -461 -291 -158 -162 -325 -383 -365 -484 -28 -71 -78 -269 -103 -410 -16 -89 -17 -368 -1 -460 24 -135 63 -262 112 -365 103 -214 146 -205 76 16 -59 185 -70 254 -70 459 -1 159 2 200 22 290 64 286 209 540 426 748 95 91 245 194 358 247 197 90 602 137 783 89 44 -12 -156 -33 -317 -33 -144 -1 -186 -8 -348 -58 -232 -71 -386 -172 -542 -356 -92 -109 -138 -180 -203 -312 -154 -314 -173 -712 -51 -1033 71 -185 141 -300 268 -442 101 -111 186 -182 300 -251 83 -49 213 -98 226 -84 8 8 -2 16 -124 95 -102 66 -288 251 -319 317 -9 21 -28 49 -40 63 -27 30 -159 311 -175 372 -6 24 -14 52 -17 63 -5 17 -2 16 15 -5 12 -14 21 -21 22 -17 1 22 -26 105 -42 132 -15 25 -18 52 -18 167 0 83 6 165 15 208 16 77 61 218 75 235 4 5 22 43 39 84 31 73 103 184 137 212 10 7 4 -4 -13 -26 -31 -39 -113 -178 -113 -191 0 -3 7 -4 15 0 25 9 17 -21 -10 -41 -20 -15 -31 -43 -60 -153 -63 -243 -65 -384 -11 -617 43 -181 89 -282 204 -443 69 -97 117 -146 221 -224 195 -148 328 -215 517 -263 101 -26 123 -28 309 -28 216 0 296 11 445 62 143 49 278 128 256 150 -4 5 -50 -7 -102 -25 -182 -64 -284 -84 -451 -87 -121 -2 -155 0 -164 11 -6 8 -30 14 -54 14 -80 0 -327 74 -289 87 6 2 50 -8 98 -22 126 -36 194 -45 347 -45 210 0 357 32 534 115 190 90 311 188 434 351 94 126 158 246 202 379 31 94 33 109 35 260 1 88 0 154 -3 148 -11 -29 -23 -10 -22 35 2 46 2 46 9 12 4 -19 8 -30 9 -25 1 6 9 -2 17 -17 17 -33 28 -35 51 -9 56 66 87 225 81 412 -4 116 -9 147 -36 229 -96 287 -362 615 -632 777 -309 186 -680 269 -1034 232z m362 -446 c-21 -2 -57 -2 -80 0 -24 2 -7 4 37 4 44 0 63 -2 43 -4z m-758 -188 c0 -1 -5 -16 -11 -34 -10 -28 -9 -35 12 -57 30 -32 53 -32 47 1 -3 13 -1 22 3 19 5 -3 9 -17 9 -32 0 -22 10 -33 54 -60 30 -17 59 -32 65 -32 6 0 11 -9 11 -20 0 -13 7 -20 19 -20 29 0 51 -11 51 -25 0 -7 9 -23 19 -37 11 -13 23 -36 26 -51 6 -21 2 -28 -23 -41 -16 -8 -32 -25 -35 -37 -3 -11 -10 -18 -16 -15 -16 11 -71 -46 -85 -89 l-14 -39 -11 39 c-19 70 -12 204 14 267 7 17 -6 22 -90 33 -57 8 -115 35 -115 54 1 14 2 14 14 -1 19 -26 74 -35 82 -14 4 9 0 24 -8 34 -9 9 -14 22 -11 28 2 6 -13 18 -34 27 -39 15 -111 82 -101 92 3 3 19 -8 36 -25 17 -16 35 -30 41 -30 19 0 33 38 22 59 -9 16 -8 18 9 14 11 -3 20 -6 20 -8z m1140 -40 c16 -19 -5 -37 -145 -127 -99 -63 -106 -66 -75 -33 30 32 32 36 10 25 -85 -44 -295 -234 -329 -298 -11 -21 -10 -22 12 -17 18 5 29 1 40 -15 14 -20 13 -24 -30 -68 -66 -68 -139 -182 -123 -192 8 -5 10 -17 7 -30 -5 -19 1 -17 35 16 23 21 38 34 34 27 -4 -7 2 -13 16 -15 35 -5 34 -40 -1 -81 -35 -40 -38 -49 -13 -40 9 4 -4 -16 -29 -45 -28 -31 -51 -68 -57 -92 l-10 -41 33 25 c27 21 49 26 146 35 138 13 178 23 209 56 24 25 24 26 4 45 -12 13 -36 21 -62 23 -23 1 -42 4 -42 7 0 3 12 13 28 22 35 21 97 86 90 94 -10 9 -117 -24 -166 -52 l-44 -24 64 63 63 62 -37 3 c-20 2 -47 -2 -60 -9 -16 -8 -12 0 16 29 21 22 41 55 45 73 9 44 34 59 60 35 12 -11 21 -28 21 -38 0 -16 5 -19 29 -13 28 6 30 4 33 -25 l3 -32 27 21 c55 44 82 11 50 -62 l-20 -44 42 12 c58 18 76 6 76 -50 l0 -44 35 15 c19 7 39 14 44 14 18 0 21 -33 6 -56 -18 -27 -16 -28 35 -13 21 7 50 9 63 5 31 -7 44 -41 25 -63 -11 -15 -11 -16 5 -10 9 3 29 2 43 -3 19 -8 24 -15 19 -30 -5 -16 -2 -20 17 -20 28 0 71 -28 63 -41 -4 -5 4 -9 17 -9 34 0 98 -20 98 -30 0 -5 -17 -12 -37 -16 -21 -3 -78 -16 -128 -28 l-90 -22 92 -7 c106 -8 191 -36 237 -79 l31 -30 -60 7 c-167 18 -233 22 -292 17 -67 -5 -98 -22 -41 -22 18 0 75 -6 126 -14 101 -15 166 -46 246 -118 53 -48 33 -49 -76 -4 -70 28 -140 49 -240 70 -11 3 -15 -1 -11 -12 5 -12 -1 -14 -43 -8 l-49 7 66 -29 c100 -44 206 -120 231 -166 9 -17 7 -18 -16 -12 -14 3 -61 27 -104 52 -135 81 -263 140 -161 76 48 -31 119 -107 119 -129 0 -28 -35 -6 -63 39 -48 78 -298 162 -557 187 -109 11 -240 12 -240 3 0 -10 166 -78 231 -95 124 -32 312 -201 380 -339 39 -82 2 -79 -58 3 -52 72 -184 202 -252 248 -63 43 -187 112 -156 87 97 -78 195 -202 246 -309 57 -123 30 -109 -86 43 -60 80 -136 174 -170 209 -100 107 -235 196 -189 126 15 -23 8 -21 -72 21 -100 53 -149 94 -159 133 -11 46 -58 112 -75 105 -42 -16 -153 -34 -218 -34 -99 0 -162 30 -236 112 -31 33 -53 64 -51 68 3 4 -9 13 -25 20 -35 15 -103 87 -95 100 10 16 34 12 104 -16 57 -23 75 -26 155 -22 106 5 161 25 221 82 22 21 51 40 65 43 49 10 60 14 145 55 115 55 129 68 121 111 -19 97 -19 117 -2 123 11 4 26 -2 41 -16 35 -33 39 -56 16 -79 -37 -37 -22 -181 18 -181 11 0 31 71 31 112 0 19 9 61 21 94 15 45 20 78 17 140 -3 79 -2 82 27 106 38 32 56 38 78 26 13 -7 24 -5 36 6 10 9 29 16 42 16 16 0 40 16 69 46 108 111 215 163 336 163 51 1 75 -3 84 -14z m-1501 -417 c-22 -40 -49 -82 -60 -93 -20 -20 32 79 73 138 33 47 28 30 -13 -45z m1097 -99 c16 -17 16 -22 4 -29 -8 -6 -18 -10 -22 -10 -5 0 -26 -16 -47 -35 l-39 -36 19 53 c11 29 22 59 24 66 7 19 40 14 61 -9z m1171 -711 c-12 -81 -25 -130 -37 -138 -4 -3 -15 -18 -24 -35 -10 -16 -14 -21 -10 -10 46 132 64 189 64 205 0 11 3 20 6 20 4 0 4 -19 1 -42z m-1061 -138 c45 -10 137 -46 207 -80 118 -57 131 -66 183 -128 57 -69 101 -142 86 -142 -12 0 -73 45 -147 109 -105 91 -186 139 -435 259 l-25 13 25 -6 c14 -3 61 -14 106 -25z m346 -96 c46 -20 91 -44 102 -53 25 -22 59 -71 53 -77 -2 -3 -56 30 -118 72 -164 110 -166 114 -37 58z m-942 -669 c0 -14 -32 -2 -57 20 l-28 26 43 -21 c23 -11 42 -23 42 -25z"/>
<path d="M1268 2454 c3 -26 10 -35 35 -43 16 -6 31 -11 32 -11 2 0 5 9 8 20 3 13 0 20 -9 20 -8 0 -14 3 -14 8 0 4 -13 14 -28 23 l-28 16 4 -33z"/>
<path d="M780 1765 c0 -7 86 -55 100 -55 18 0 -6 28 -41 46 -27 14 -59 19 -59 9z"/>
<path d="M2000 1619 c-89 -15 -201 -56 -216 -81 -11 -18 217 -3 308 21 88 23 141 48 133 61 -7 12 -150 11 -225 -1z"/>
<path d="M1726 1551 c-4 -5 -3 -16 0 -25 6 -15 8 -15 20 1 7 10 14 21 14 26 0 10 -28 9 -34 -2z"/>
<path d="M1908 1510 c-130 -27 -141 -39 -38 -41 l85 -2 -60 -7 c-157 -21 -129 -27 161 -34 304 -7 403 1 269 23 -107 17 -126 19 -175 22 -29 1 -10 5 51 10 53 5 107 13 120 18 21 7 18 10 -29 20 -81 17 -283 13 -384 -9z"/>
<path d="M1839 1399 c-64 -4 -125 -12 -135 -18 -11 -6 -14 -11 -9 -11 11 -1 378 -16 615 -25 107 -5 140 -3 128 5 -29 18 -174 40 -303 46 -66 3 -133 6 -150 7 -16 2 -82 0 -146 -4z"/>
<path d="M1780 1338 c0 -13 286 -48 412 -50 75 -2 136 -3 135 -1 -2 1 -54 11 -117 23 -106 19 -430 40 -430 28z"/>
</g>
<g id="layer104" fill="#655a20" stroke="none">
<path d="M1626 3259 c-380 -40 -745 -220 -1019 -504 -62 -63 -117 -136 -117 -155 0 -6 40 24 88 67 174 154 358 267 550 339 81 31 104 30 30 -1 -173 -71 -365 -193 -461 -291 -158 -162 -325 -383 -365 -484 -28 -71 -78 -269 -103 -410 -16 -89 -17 -368 -1 -460 24 -135 63 -262 112 -365 103 -214 146 -205 76 16 -59 185 -70 254 -70 459 -1 159 2 200 22 290 64 286 209 540 426 748 95 91 245 194 358 247 197 90 602 137 783 89 44 -12 -156 -33 -317 -33 -144 -1 -186 -8 -348 -58 -232 -71 -386 -172 -542 -356 -92 -109 -138 -180 -203 -312 -154 -314 -173 -712 -51 -1033 71 -185 141 -300 268 -442 101 -111 186 -182 300 -251 83 -49 213 -98 226 -84 8 8 -2 16 -124 95 -102 66 -288 251 -319 317 -9 21 -28 49 -40 63 -27 30 -159 311 -175 372 -6 24 -14 52 -17 63 -5 17 -2 16 15 -5 12 -14 21 -21 22 -17 1 22 -26 105 -42 132 -15 25 -18 52 -18 167 0 83 6 165 15 208 16 77 61 218 75 235 4 5 22 43 39 84 31 73 103 184 137 212 10 7 4 -4 -13 -26 -31 -39 -113 -178 -113 -191 0 -3 7 -4 15 0 25 9 17 -21 -10 -41 -20 -15 -31 -43 -60 -153 -63 -243 -65 -384 -11 -617 43 -181 89 -282 204 -443 69 -97 117 -146 221 -224 195 -148 328 -215 517 -263 101 -26 123 -28 309 -28 216 0 296 11 445 62 143 49 278 128 256 150 -4 5 -50 -7 -102 -25 -182 -64 -284 -84 -451 -87 -121 -2 -155 0 -164 11 -6 8 -30 14 -54 14 -80 0 -327 74 -289 87 6 2 50 -8 98 -22 126 -36 194 -45 347 -45 210 0 357 32 534 115 190 90 311 188 434 351 94 126 158 246 202 379 31 94 33 109 35 260 1 88 0 154 -3 148 -11 -29 -23 -10 -22 35 2 46 2 46 9 12 4 -19 8 -30 9 -25 1 6 9 -2 17 -17 17 -33 28 -35 51 -9 56 66 87 225 81 412 -4 116 -9 147 -36 229 -96 287 -362 615 -632 777 -309 186 -680 269 -1034 232z m362 -446 c-21 -2 -57 -2 -80 0 -24 2 -7 4 37 4 44 0 63 -2 43 -4z m-868 -198 c0 -19 48 -55 65 -49 19 8 26 33 15 54 -8 15 -6 18 14 16 24 -1 24 -1 8 -40 -15 -39 -15 -39 12 -63 35 -30 50 -29 44 2 -3 14 -1 25 3 25 9 0 12 -19 10 -50 -1 -14 78 -68 121 -83 11 -4 15 -12 12 -22 -4 -10 0 -15 14 -15 30 0 52 -10 52 -24 0 -7 11 -27 25 -46 14 -19 25 -42 25 -52 0 -10 5 -18 10 -18 6 0 10 13 10 29 0 37 24 59 45 41 8 -6 17 -21 20 -31 6 -19 8 -18 27 6 10 14 26 25 33 25 7 0 28 12 45 27 24 19 42 26 70 25 22 -1 42 3 45 8 3 6 17 10 31 10 16 0 49 23 100 70 81 75 107 92 192 121 71 24 184 26 203 3 17 -20 14 -22 -171 -143 -116 -76 -271 -200 -360 -288 l-25 -24 27 6 c21 6 30 2 43 -19 10 -16 27 -26 40 -26 13 0 34 -13 48 -30 22 -25 27 -27 38 -14 20 25 53 13 63 -23 9 -28 13 -31 38 -26 26 5 28 3 28 -26 l0 -32 34 26 c31 24 35 24 50 10 20 -21 20 -38 0 -76 -19 -38 -15 -43 29 -31 50 14 67 0 67 -53 l0 -43 40 15 c55 22 73 6 47 -39 -17 -29 -17 -30 0 -23 10 4 39 10 65 12 40 5 48 2 58 -16 6 -12 9 -27 7 -34 -2 -7 10 -17 27 -23 22 -8 31 -17 30 -33 0 -16 5 -21 27 -21 17 0 35 -9 47 -25 11 -14 26 -25 33 -25 27 0 89 -21 89 -30 0 -5 -26 -14 -57 -20 -32 -7 -89 -20 -128 -30 l-70 -18 50 -1 c122 -3 283 -55 299 -98 6 -14 0 -15 -51 -9 -187 23 -346 26 -358 7 -2 -4 47 -13 108 -19 131 -14 206 -45 284 -117 58 -54 44 -57 -62 -15 -83 33 -209 70 -238 70 -11 0 -15 -4 -11 -12 5 -8 -6 -9 -42 -4 -49 6 -49 6 44 -40 61 -31 112 -65 150 -102 84 -82 48 -78 -110 12 -141 79 -203 108 -128 59 25 -16 62 -48 83 -71 40 -45 50 -79 20 -67 -10 4 -24 10 -32 13 -8 3 -2 -11 14 -31 15 -21 25 -40 22 -43 -3 -3 -63 34 -133 82 -131 89 -188 117 -259 127 -31 4 -13 -7 85 -54 105 -51 134 -69 181 -119 62 -66 119 -160 97 -160 -7 0 -52 32 -98 71 -47 38 -117 90 -156 115 -69 43 -232 119 -239 112 -2 -2 27 -28 65 -57 109 -82 219 -216 236 -283 13 -55 -24 -28 -137 98 -111 125 -189 191 -291 248 l-53 30 72 -72 c77 -78 127 -147 173 -241 29 -58 40 -108 21 -97 -5 3 -48 58 -96 122 -144 191 -281 322 -347 329 -23 3 -176 82 -211 109 -10 7 -31 42 -48 77 -48 99 -47 99 -126 78 -38 -10 -106 -18 -154 -18 -72 -1 -93 3 -136 24 -46 23 -134 105 -159 146 -5 9 -28 29 -52 44 -42 28 -78 76 -65 89 12 12 44 6 106 -20 55 -23 71 -26 152 -22 155 8 224 57 306 217 41 81 46 98 38 125 -14 47 -11 187 5 239 13 43 13 46 -8 51 -11 3 -36 6 -54 6 -43 0 -132 38 -132 57 0 11 6 10 26 -6 49 -38 98 -14 59 29 -10 11 -14 20 -9 20 5 1 -7 9 -26 20 -59 31 -102 74 -105 103 -2 15 1 25 6 21 5 -3 9 -11 9 -19z m-251 -447 c-22 -40 -49 -82 -60 -93 -20 -20 32 79 73 138 33 47 28 30 -13 -45z m2268 -810 c-12 -81 -25 -130 -37 -138 -4 -3 -15 -18 -24 -35 -10 -16 -14 -21 -10 -10 46 132 64 189 64 205 0 11 3 20 6 20 4 0 4 -19 1 -42z m-1657 -903 c0 -14 -32 -2 -57 20 l-28 26 43 -21 c23 -11 42 -23 42 -25z"/>
<path d="M1270 2451 c0 -26 5 -32 33 -39 55 -14 47 26 -11 57 -20 11 -22 10 -22 -18z"/>
</g>
<g id="layer105" fill="#86761c" stroke="none">
<path d="M1626 3259 c-380 -40 -745 -220 -1019 -504 -62 -63 -117 -136 -117 -155 0 -6 40 24 88 67 174 154 358 267 550 339 81 31 104 30 30 -1 -173 -71 -365 -193 -461 -291 -158 -162 -325 -383 -365 -484 -28 -71 -78 -269 -103 -410 -16 -89 -17 -368 -1 -460 24 -135 63 -262 112 -365 103 -214 146 -205 76 16 -59 185 -70 254 -70 459 -1 159 2 200 22 290 64 286 209 540 426 748 95 91 245 194 358 247 197 90 602 137 783 89 44 -12 -156 -33 -317 -33 -144 -1 -186 -8 -348 -58 -232 -71 -386 -172 -542 -356 -92 -109 -138 -180 -203 -312 -154 -314 -173 -712 -51 -1033 71 -185 141 -300 268 -442 101 -111 186 -182 300 -251 83 -49 213 -98 226 -84 8 8 -2 16 -124 95 -102 66 -288 251 -319 317 -9 21 -28 49 -40 63 -27 30 -159 311 -175 372 -6 24 -14 52 -17 63 -5 17 -2 16 15 -5 12 -14 21 -21 22 -17 1 22 -26 105 -42 132 -15 25 -18 52 -18 167 0 83 6 165 15 208 16 77 61 218 75 235 4 5 22 43 39 84 31 73 103 184 137 212 10 7 4 -4 -13 -26 -31 -39 -113 -178 -113 -191 0 -3 7 -4 15 0 25 9 17 -21 -10 -41 -20 -15 -31 -43 -60 -153 -63 -243 -65 -384 -11 -617 43 -181 89 -282 204 -443 69 -97 117 -146 221 -224 195 -148 328 -215 517 -263 101 -26 123 -28 309 -28 216 0 296 11 445 62 143 49 278 128 256 150 -4 5 -50 -7 -102 -25 -182 -64 -284 -84 -451 -87 -121 -2 -155 0 -164 11 -6 8 -30 14 -54 14 -80 0 -327 74 -289 87 6 2 50 -8 98 -22 126 -36 194 -45 347 -45 210 0 357 32 534 115 190 90 311 188 434 351 94 126 158 246 202 379 31 94 33 109 35 260 1 88 0 154 -3 148 -11 -29 -23 -10 -22 35 2 46 2 46 9 12 4 -19 8 -30 9 -25 1 6 9 -2 17 -17 17 -33 28 -35 51 -9 56 66 87 225 81 412 -4 116 -9 147 -36 229 -96 287 -362 615 -632 777 -309 186 -680 269 -1034 232z m362 -446 c-21 -2 -57 -2 -80 0 -24 2 -7 4 37 4 44 0 63 -2 43 -4z m-864 -205 c15 -30 64 -48 76 -28 5 8 5 21 -1 31 -13 25 -12 27 15 25 23 -1 23 -2 9 -41 -14 -39 -13 -40 14 -62 36 -29 46 -29 41 2 -3 14 -1 25 3 25 5 0 10 -8 10 -17 1 -10 2 -25 3 -33 0 -8 30 -32 66 -52 37 -22 64 -45 64 -53 -1 -10 8 -15 27 -15 21 0 32 -6 39 -22 5 -13 18 -36 29 -53 12 -16 21 -38 21 -47 0 -10 5 -18 10 -18 6 0 10 13 10 29 0 54 52 66 64 14 l7 -25 19 25 c11 14 31 28 45 31 14 4 25 11 25 16 0 15 42 34 80 37 80 5 102 16 175 84 109 101 195 139 316 139 49 0 70 -4 80 -16 17 -20 13 -23 -166 -141 -71 -47 -175 -124 -229 -172 -55 -47 -113 -98 -130 -113 l-31 -26 27 5 c20 4 30 -1 43 -21 11 -17 26 -26 44 -26 18 0 33 -10 48 -32 18 -26 23 -29 29 -15 7 20 44 23 62 5 7 -7 12 -22 12 -35 0 -20 4 -22 30 -16 28 5 30 4 30 -27 l0 -32 31 26 c35 29 40 31 57 14 16 -16 15 -47 -3 -82 -9 -16 -14 -30 -12 -32 2 -2 17 0 35 5 55 16 72 5 72 -46 0 -42 1 -45 23 -38 12 4 33 8 47 9 26 1 31 -18 15 -57 -6 -15 -4 -16 20 -7 45 17 93 13 105 -11 7 -11 9 -27 6 -34 -3 -9 7 -15 30 -19 28 -6 34 -11 34 -31 0 -19 5 -25 21 -25 28 0 59 -18 59 -34 0 -7 21 -16 52 -22 55 -10 75 -30 36 -38 -13 -3 -68 -15 -123 -28 l-100 -23 76 -6 c106 -9 170 -26 223 -60 65 -41 60 -53 -16 -45 -197 22 -348 25 -348 7 0 -4 50 -13 111 -20 122 -13 155 -25 257 -98 102 -72 81 -82 -59 -28 -137 53 -249 79 -234 55 4 -6 -7 -10 -27 -10 -30 -1 -26 -4 46 -42 73 -39 186 -129 186 -149 0 -21 -42 -4 -166 66 -73 41 -136 75 -140 75 -5 -1 0 -6 12 -13 48 -28 92 -69 109 -102 22 -40 15 -53 -21 -36 l-26 12 26 -31 c61 -74 23 -58 -149 59 -76 52 -133 83 -165 91 -85 20 -75 6 30 -40 115 -51 172 -96 234 -184 81 -115 67 -126 -44 -35 -108 89 -230 167 -323 206 -44 18 -81 32 -83 30 -2 -2 24 -23 58 -47 117 -86 248 -251 248 -312 0 -33 -33 -5 -152 129 -107 119 -160 163 -293 243 -34 21 -30 14 32 -47 81 -80 153 -184 190 -275 24 -59 25 -76 3 -63 -6 3 -51 60 -100 124 -49 65 -115 146 -146 181 -63 67 -163 140 -197 144 -24 3 -129 54 -190 93 -28 18 -46 40 -64 81 -13 31 -33 68 -44 84 -20 27 -20 27 -62 11 -23 -8 -89 -18 -147 -20 -136 -7 -181 11 -269 102 -34 35 -61 67 -61 72 0 5 -16 17 -36 28 -37 20 -84 72 -84 93 0 19 47 14 103 -10 42 -19 70 -23 147 -23 163 1 239 53 323 222 33 67 42 94 36 113 -12 43 -10 195 5 242 l13 46 -30 6 c-16 3 -42 6 -57 6 -41 0 -120 36 -120 55 0 14 4 13 26 -4 47 -37 89 -17 59 27 -8 10 -12 22 -10 24 3 3 -12 13 -34 23 -51 23 -101 74 -98 102 1 25 5 23 21 -9z m-255 -440 c-22 -40 -49 -82 -60 -93 -20 -20 32 79 73 138 33 47 28 30 -13 -45z m2268 -810 c-12 -81 -25 -130 -37 -138 -4 -3 -15 -18 -24 -35 -10 -16 -14 -21 -10 -10 46 132 64 189 64 205 0 11 3 20 6 20 4 0 4 -19 1 -42z m-1657 -903 c0 -14 -32 -2 -57 20 l-28 26 43 -21 c23 -11 42 -23 42 -25z"/>
<path d="M1270 2451 c0 -25 5 -30 31 -36 17 -4 33 -4 36 -1 7 7 -25 44 -49 57 -15 8 -18 5 -18 -20z"/>
</g>
<g id="layer106" fill="#6b6764" stroke="none">
<path d="M1626 3259 c-380 -40 -745 -220 -1019 -504 -62 -63 -117 -136 -117 -155 0 -6 40 24 88 67 174 154 358 267 550 339 81 31 104 30 30 -1 -173 -71 -365 -193 -461 -291 -158 -162 -325 -383 -365 -484 -28 -71 -78 -269 -103 -410 -16 -89 -17 -368 -1 -460 24 -135 63 -262 112 -365 103 -214 146 -205 76 16 -59 185 -70 254 -70 459 -1 159 2 200 22 290 64 286 209 540 426 748 95 91 245 194 358 247 197 90 602 137 783 89 44 -12 -156 -33 -317 -33 -144 -1 -186 -8 -348 -58 -232 -71 -386 -172 -542 -356 -92 -109 -138 -180 -203 -312 -154 -314 -173 -712 -51 -1033 71 -185 141 -300 268 -442 101 -111 186 -182 300 -251 83 -49 213 -98 226 -84 8 8 -2 16 -124 95 -102 66 -288 251 -319 317 -9 21 -28 49 -40 63 -27 30 -159 311 -175 372 -6 24 -14 52 -17 63 -5 17 -2 16 15 -5 12 -14 21 -21 22 -17 1 22 -26 105 -42 132 -15 25 -18 52 -18 167 0 83 6 165 15 208 16 77 61 218 75 235 4 5 22 43 39 84 31 73 103 184 137 212 10 7 4 -4 -13 -26 -31 -39 -113 -178 -113 -191 0 -3 7 -4 15 0 25 9 17 -21 -10 -41 -20 -15 -31 -43 -60 -153 -63 -243 -65 -384 -11 -617 43 -181 89 -282 204 -443 69 -97 117 -146 221 -224 195 -148 328 -215 517 -263 101 -26 123 -28 309 -28 216 0 296 11 445 62 143 49 278 128 256 150 -4 5 -50 -7 -102 -25 -182 -64 -284 -84 -451 -87 -121 -2 -155 0 -164 11 -6 8 -30 14 -54 14 -80 0 -327 74 -289 87 6 2 50 -8 98 -22 126 -36 194 -45 347 -45 210 0 357 32 534 115 190 90 311 188 434 351 94 126 158 246 202 379 31 94 33 109 35 260 1 88 0 154 -3 148 -11 -29 -23 -10 -22 35 2 46 2 46 9 12 4 -19 8 -30 9 -25 1 6 9 -2 17 -17 17 -33 28 -35 51 -9 56 66 87 225 81 412 -4 116 -9 147 -36 229 -96 287 -362 615 -632 777 -309 186 -680 269 -1034 232z m362 -446 c-21 -2 -57 -2 -80 0 -24 2 -7 4 37 4 44 0 63 -2 43 -4z m-868 -198 c0 -18 39 -45 64 -45 16 0 18 5 13 34 -5 31 -3 34 19 32 13 0 24 -2 24 -2 0 -1 -7 -19 -16 -40 -16 -38 -16 -38 12 -61 16 -13 32 -23 37 -23 12 0 8 38 -5 43 -8 3 -7 6 4 6 17 1 31 -26 26 -49 -2 -6 26 -29 62 -51 36 -22 64 -47 64 -55 -1 -9 8 -14 27 -14 19 0 32 -6 36 -17 4 -10 17 -33 30 -52 13 -19 23 -43 23 -54 0 -31 18 -8 22 28 4 43 45 48 60 8 l11 -29 28 28 c15 15 35 28 43 28 9 0 16 4 16 10 0 15 41 34 80 37 79 5 100 16 179 88 44 41 89 79 101 85 93 50 253 71 286 38 9 -9 13 -21 10 -27 -4 -6 -71 -53 -149 -104 -120 -79 -212 -151 -386 -305 -14 -13 -20 -20 -13 -17 22 11 60 -4 67 -25 5 -15 12 -19 25 -15 13 4 27 -3 46 -25 19 -21 31 -27 38 -20 26 26 76 3 79 -38 1 -15 8 -19 32 -18 27 1 30 -2 28 -27 l-2 -28 31 26 c33 28 46 28 62 2 8 -13 7 -29 -6 -63 -15 -42 -15 -45 0 -39 68 26 97 12 97 -45 0 -32 3 -39 15 -34 43 16 70 16 76 -1 4 -10 2 -26 -4 -36 -17 -27 -15 -30 14 -19 63 24 122 3 111 -39 -4 -15 2 -20 29 -26 30 -5 38 -14 36 -36 -1 -4 17 -13 38 -22 22 -8 40 -22 40 -29 0 -9 19 -18 52 -24 55 -10 74 -30 36 -38 -13 -3 -68 -16 -123 -30 l-100 -24 65 -1 c117 -2 269 -58 278 -102 3 -14 -7 -15 -90 -3 -103 15 -308 19 -308 6 0 -5 46 -13 103 -19 114 -12 171 -34 265 -104 87 -66 62 -78 -59 -29 -98 41 -232 75 -237 61 -2 -6 -18 -11 -35 -11 -28 -1 -22 -6 53 -45 86 -45 186 -132 178 -155 -3 -11 -53 12 -213 99 l-60 33 38 -32 c21 -18 47 -51 58 -73 l21 -40 -31 6 -31 7 22 -30 c12 -16 18 -33 15 -37 -4 -4 -67 34 -140 83 -139 95 -167 110 -232 119 -38 5 -37 4 25 -26 36 -17 84 -39 108 -50 23 -10 65 -39 92 -65 47 -44 130 -156 130 -175 0 -22 -34 -5 -92 44 -104 88 -191 145 -293 193 -53 25 -99 44 -101 41 -3 -2 17 -21 44 -41 69 -50 176 -166 212 -228 29 -52 39 -98 21 -98 -6 0 -62 57 -126 128 -126 139 -163 171 -270 236 l-71 43 71 -71 c39 -39 92 -106 119 -148 48 -78 91 -176 82 -186 -10 -9 -34 18 -125 138 -50 64 -113 142 -141 173 -54 59 -161 137 -188 137 -18 0 -161 72 -206 103 -16 11 -40 47 -56 81 -47 103 -44 101 -131 81 -41 -9 -110 -17 -155 -17 -66 0 -89 4 -130 25 -50 26 -149 116 -159 146 -3 9 -21 25 -41 36 -41 22 -84 69 -84 92 0 20 53 13 135 -17 50 -18 74 -21 138 -17 140 9 221 67 294 209 l37 73 1 150 c1 83 5 160 9 172 7 20 4 22 -41 28 -26 3 -59 8 -73 11 -37 7 -92 43 -85 55 5 7 13 5 23 -4 28 -24 61 -30 68 -13 3 9 3 24 -2 34 -4 9 -7 20 -6 23 1 4 -16 14 -37 24 -48 21 -118 90 -102 100 6 3 8 11 5 17 -4 7 -2 8 4 4 7 -4 12 -13 12 -21z m-251 -447 c-22 -40 -49 -82 -60 -93 -20 -20 32 79 73 138 33 47 28 30 -13 -45z m2268 -810 c-12 -81 -25 -130 -37 -138 -4 -3 -15 -18 -24 -35 -10 -16 -14 -21 -10 -10 46 132 64 189 64 205 0 11 3 20 6 20 4 0 4 -19 1 -42z m-1657 -903 c0 -14 -32 -2 -57 20 l-28 26 43 -21 c23 -11 42 -23 42 -25z"/>
</g>
<g id="layer107" fill="#a79319" stroke="none">
<path d="M1626 3259 c-380 -40 -745 -220 -1019 -504 -62 -63 -117 -136 -117 -155 0 -6 40 24 88 67 174 154 358 267 550 339 81 31 104 30 30 -1 -173 -71 -365 -193 -461 -291 -158 -162 -325 -383 -365 -484 -28 -71 -78 -269 -103 -410 -16 -89 -17 -368 -1 -460 24 -135 63 -262 112 -365 103 -214 146 -205 76 16 -59 185 -70 254 -70 459 -1 159 2 200 22 290 64 286 209 540 426 748 95 91 245 194 358 247 197 90 602 137 783 89 44 -12 -156 -33 -317 -33 -144 -1 -186 -8 -348 -58 -232 -71 -386 -172 -542 -356 -92 -109 -138 -180 -203 -312 -154 -314 -173 -712 -51 -1033 71 -185 141 -300 268 -442 101 -111 186 -182 300 -251 83 -49 213 -98 226 -84 8 8 -2 16 -124 95 -102 66 -288 251 -319 317 -9 21 -28 49 -40 63 -27 30 -159 311 -175 372 -6 24 -14 52 -17 63 -5 17 -2 16 15 -5 12 -14 21 -21 22 -17 1 22 -26 105 -42 132 -15 25 -18 52 -18 167 0 83 6 165 15 208 16 77 61 218 75 235 4 5 22 43 39 84 31 73 103 184 137 212 10 7 4 -4 -13 -26 -31 -39 -113 -178 -113 -191 0 -3 7 -4 15 0 25 9 17 -21 -10 -41 -20 -15 -31 -43 -60 -153 -63 -243 -65 -384 -11 -617 43 -181 89 -282 204 -443 69 -97 117 -146 221 -224 195 -148 328 -215 517 -263 101 -26 123 -28 309 -28 216 0 296 11 445 62 143 49 278 128 256 150 -4 5 -50 -7 -102 -25 -182 -64 -284 -84 -451 -87 -121 -2 -155 0 -164 11 -6 8 -30 14 -54 14 -80 0 -327 74 -289 87 6 2 50 -8 98 -22 126 -36 194 -45 347 -45 210 0 357 32 534 115 190 90 311 188 434 351 94 126 158 246 202 379 31 94 33 109 35 260 1 88 0 154 -3 148 -11 -29 -23 -10 -22 35 2 46 2 46 9 12 4 -19 8 -30 9 -25 1 6 9 -2 17 -17 17 -33 28 -35 51 -9 56 66 87 225 81 412 -4 116 -9 147 -36 229 -96 287 -362 615 -632 777 -309 186 -680 269 -1034 232z m362 -446 c-21 -2 -57 -2 -80 0 -24 2 -7 4 37 4 44 0 63 -2 43 -4z m-868 -198 c0 -18 39 -45 64 -45 16 0 18 5 13 34 -5 30 -3 34 19 34 13 0 24 -2 24 -3 0 -1 -7 -20 -16 -41 -16 -38 -16 -38 12 -61 16 -13 32 -23 37 -23 12 0 8 38 -5 43 -8 3 -7 6 4 6 17 1 31 -26 26 -49 -2 -6 26 -29 62 -51 36 -22 64 -47 64 -55 -1 -9 8 -14 27 -14 19 0 32 -6 36 -17 4 -10 17 -33 30 -52 13 -19 23 -43 23 -54 0 -31 18 -8 22 28 4 43 45 48 60 8 l11 -29 28 28 c15 15 35 28 43 28 9 0 16 4 16 10 0 15 41 34 80 37 79 5 100 16 179 88 44 41 89 79 101 85 93 50 253 71 286 38 9 -9 13 -21 10 -27 -4 -6 -71 -53 -149 -104 -120 -79 -212 -151 -386 -305 -14 -13 -20 -20 -13 -17 22 11 60 -4 67 -25 5 -15 12 -19 25 -15 13 4 27 -3 46 -25 19 -21 31 -27 38 -20 26 26 76 3 79 -38 1 -15 8 -19 32 -18 27 1 30 -2 28 -27 l-2 -28 31 26 c33 28 46 28 62 2 8 -13 7 -29 -6 -63 -15 -42 -15 -45 0 -39 68 26 97 12 97 -45 0 -32 3 -39 15 -34 43 16 70 16 76 -1 4 -10 2 -26 -4 -36 -17 -27 -15 -30 14 -19 63 24 122 3 111 -39 -4 -15 2 -20 29 -26 30 -5 38 -14 36 -36 -1 -4 17 -13 38 -22 22 -8 40 -22 40 -29 0 -9 19 -18 52 -24 55 -10 74 -30 36 -38 -13 -3 -68 -16 -123 -30 l-100 -24 65 -1 c117 -2 269 -58 278 -102 3 -14 -7 -15 -90 -3 -103 15 -308 19 -308 6 0 -5 46 -13 103 -19 114 -12 171 -34 265 -104 87 -66 62 -78 -59 -29 -98 41 -232 75 -237 61 -2 -6 -18 -11 -35 -11 -28 -1 -22 -6 53 -45 86 -45 186 -132 178 -155 -3 -11 -53 12 -213 99 l-60 33 38 -32 c21 -18 47 -51 58 -73 l21 -40 -31 6 -31 7 22 -30 c12 -16 18 -33 15 -37 -4 -4 -67 34 -140 83 -139 95 -167 110 -232 119 -38 5 -37 4 25 -26 36 -17 84 -39 108 -50 23 -10 65 -39 92 -65 47 -44 130 -156 130 -175 0 -22 -34 -5 -92 44 -104 88 -191 145 -293 193 -53 25 -99 44 -101 41 -3 -2 17 -21 44 -41 69 -50 176 -166 212 -228 29 -52 39 -98 21 -98 -6 0 -62 57 -126 128 -126 139 -163 171 -270 236 l-71 43 71 -71 c39 -39 92 -106 119 -148 48 -78 91 -176 82 -186 -10 -9 -34 18 -125 138 -50 64 -113 142 -141 173 -54 59 -161 137 -188 137 -18 0 -161 72 -206 103 -16 11 -40 47 -56 81 -47 103 -44 101 -131 81 -41 -9 -110 -17 -155 -17 -66 0 -89 4 -130 25 -50 26 -149 116 -159 146 -3 9 -21 25 -41 36 -41 22 -84 69 -84 92 0 20 53 13 135 -17 50 -18 74 -21 138 -17 140 9 221 67 294 209 l37 73 1 150 c1 83 5 160 9 172 7 20 4 22 -41 28 -26 3 -59 8 -73 11 -37 7 -92 43 -85 55 5 7 13 5 23 -4 28 -24 61 -30 68 -13 3 9 3 24 -2 34 -4 9 -7 20 -6 23 1 4 -16 14 -37 24 -53 23 -114 86 -105 108 7 19 24 13 24 -8z m-251 -447 c-22 -40 -49 -82 -60 -93 -20 -20 32 79 73 138 33 47 28 30 -13 -45z m2268 -810 c-12 -81 -25 -130 -37 -138 -4 -3 -15 -18 -24 -35 -10 -16 -14 -21 -10 -10 46 132 64 189 64 205 0 11 3 20 6 20 4 0 4 -19 1 -42z m-1657 -903 c0 -14 -32 -2 -57 20 l-28 26 43 -21 c23 -11 42 -23 42 -25z"/>
<path d="M1272 2455 c2 -22 10 -32 30 -39 54 -19 47 4 -15 53 -17 14 -18 13 -15 -14z"/>
</g>
<g id="layer108" fill="#ccb314" stroke="none">
<path d="M1626 3259 c-380 -40 -745 -220 -1019 -504 -62 -63 -117 -136 -117 -155 0 -6 40 24 88 67 174 154 358 267 550 339 81 31 104 30 30 -1 -173 -71 -365 -193 -461 -291 -158 -162 -325 -383 -365 -484 -28 -71 -78 -269 -103 -410 -16 -89 -17 -368 -1 -460 24 -135 63 -262 112 -365 103 -214 146 -205 76 16 -59 185 -70 254 -70 459 -1 159 2 200 22 290 64 286 209 540 426 748 95 91 245 194 358 247 197 90 602 137 783 89 44 -12 -156 -33 -317 -33 -144 -1 -186 -8 -348 -58 -232 -71 -386 -172 -542 -356 -92 -109 -138 -180 -203 -312 -154 -314 -173 -712 -51 -1033 71 -185 141 -300 268 -442 101 -111 186 -182 300 -251 83 -49 213 -98 226 -84 8 8 -2 16 -124 95 -102 66 -288 251 -319 317 -9 21 -28 49 -40 63 -27 30 -159 311 -175 372 -6 24 -14 52 -17 63 -5 17 -2 16 15 -5 12 -14 21 -21 22 -17 1 22 -26 105 -42 132 -15 25 -18 52 -18 167 0 83 6 165 15 208 16 77 61 218 75 235 4 5 22 43 39 84 31 73 103 184 137 212 10 7 4 -4 -13 -26 -31 -39 -113 -178 -113 -191 0 -3 7 -4 15 0 25 9 17 -21 -10 -41 -20 -15 -31 -43 -60 -153 -63 -243 -65 -384 -11 -617 43 -181 89 -282 204 -443 69 -97 117 -146 221 -224 195 -148 328 -215 517 -263 101 -26 123 -28 309 -28 216 0 296 11 445 62 143 49 278 128 256 150 -4 5 -50 -7 -102 -25 -182 -64 -284 -84 -451 -87 -121 -2 -155 0 -164 11 -6 8 -30 14 -54 14 -80 0 -327 74 -289 87 6 2 50 -8 98 -22 126 -36 194 -45 347 -45 210 0 357 32 534 115 190 90 311 188 434 351 94 126 158 246 202 379 31 94 33 109 35 260 1 88 0 154 -3 148 -11 -29 -23 -10 -22 35 2 46 2 46 9 12 4 -19 8 -30 9 -25 1 6 9 -2 17 -17 17 -33 28 -35 51 -9 56 66 87 225 81 412 -4 116 -9 147 -36 229 -96 287 -362 615 -632 777 -309 186 -680 269 -1034 232z m362 -446 c-21 -2 -57 -2 -80 0 -24 2 -7 4 37 4 44 0 63 -2 43 -4z m-761 -176 c13 5 15 2 9 -13 -20 -50 -17 -79 9 -97 23 -17 26 -17 32 -2 3 10 0 21 -8 27 -11 7 -9 8 6 6 14 -2 21 -12 23 -34 3 -26 13 -36 68 -68 35 -21 64 -44 64 -52 0 -9 11 -14 30 -14 21 0 30 -5 30 -16 0 -8 11 -30 24 -47 13 -18 26 -41 28 -52 4 -16 7 -12 14 15 13 45 48 54 65 16 l12 -26 25 25 c14 14 29 25 34 25 6 0 24 12 41 26 24 20 37 24 63 19 18 -3 35 -1 39 5 3 5 18 10 33 10 20 0 50 20 110 75 91 83 107 92 206 125 70 23 166 24 188 2 20 -20 -5 -52 -65 -86 -103 -57 -237 -155 -359 -261 -101 -87 -113 -100 -91 -103 13 -2 29 -14 35 -27 7 -15 16 -21 29 -18 12 3 29 -6 48 -25 19 -18 33 -26 39 -20 18 18 57 4 72 -27 11 -21 22 -30 40 -30 18 0 26 -6 28 -22 l3 -23 29 22 c24 17 32 19 45 8 19 -16 19 -53 -1 -92 -15 -29 -15 -31 2 -24 11 4 34 10 51 13 29 5 34 2 43 -23 6 -16 9 -39 7 -52 -4 -18 -1 -22 12 -16 9 4 28 9 43 12 32 5 48 -20 30 -48 -10 -17 -7 -18 47 -13 52 5 60 3 74 -18 12 -17 14 -26 5 -36 -8 -10 -5 -13 13 -13 29 0 46 -10 51 -30 2 -8 21 -24 43 -35 22 -11 39 -26 37 -33 -1 -7 9 -12 27 -12 15 0 42 -5 60 -11 25 -9 29 -14 20 -25 -6 -8 -21 -14 -33 -14 -11 0 -61 -11 -111 -24 l-90 -24 60 -1 c78 -2 161 -21 215 -52 41 -23 70 -53 60 -62 -3 -2 -45 2 -95 9 -101 14 -295 18 -295 6 0 -4 45 -13 101 -19 110 -12 167 -35 254 -101 90 -69 64 -81 -62 -31 -102 41 -227 73 -231 59 -2 -5 -18 -10 -35 -10 -32 0 -32 0 12 -20 105 -48 221 -141 221 -177 0 -20 -27 -10 -134 52 -133 76 -147 82 -104 46 34 -29 78 -89 78 -106 0 -4 -14 -5 -32 -1 l-32 6 22 -23 c25 -27 29 -52 7 -43 -8 3 -71 44 -140 90 -80 55 -145 91 -181 102 -30 9 -57 14 -60 11 -2 -2 42 -25 98 -51 71 -33 118 -62 151 -94 47 -45 127 -155 127 -173 0 -19 -29 -8 -71 26 -131 105 -214 162 -307 207 -57 27 -105 48 -108 46 -2 -3 15 -18 39 -35 68 -49 168 -157 209 -224 36 -60 49 -109 28 -109 -5 0 -65 61 -133 135 -123 134 -165 171 -260 227 l-50 29 68 -73 c90 -97 203 -293 182 -315 -11 -10 -37 17 -115 122 -42 55 -101 129 -131 163 -60 69 -169 153 -204 157 -23 3 -161 74 -211 108 -16 12 -41 47 -57 81 -48 102 -46 101 -126 81 -37 -10 -106 -18 -153 -19 -106 0 -160 23 -234 101 -59 62 -87 90 -145 143 -54 49 -55 74 -3 67 20 -3 62 -14 92 -26 71 -26 150 -26 235 0 86 26 143 82 203 196 l43 82 -8 78 c-8 76 -3 171 12 225 7 26 6 26 -52 33 -61 8 -135 35 -148 55 -12 19 4 24 23 7 10 -9 29 -18 43 -19 18 -2 25 2 27 20 2 12 -1 22 -7 22 -6 0 -11 7 -11 15 0 8 -17 23 -37 34 -47 24 -101 80 -100 104 1 24 16 21 28 -7 13 -28 52 -51 69 -41 7 4 10 19 6 35 -5 26 5 52 12 31 2 -5 11 -7 19 -4z m-358 -469 c-22 -40 -49 -82 -60 -93 -20 -20 32 79 73 138 33 47 28 30 -13 -45z m2268 -810 c-12 -81 -25 -130 -37 -138 -4 -3 -15 -18 -24 -35 -10 -16 -14 -21 -10 -10 46 132 64 189 64 205 0 11 3 20 6 20 4 0 4 -19 1 -42z m-1657 -903 c0 -14 -32 -2 -57 20 l-28 26 43 -21 c23 -11 42 -23 42 -25z"/>
<path d="M1270 2450 c0 -22 32 -43 58 -38 13 3 11 8 -11 31 -33 32 -47 34 -47 7z"/>
</g>
<g id="layer109" fill="#f8da0f" stroke="none">
<path d="M1626 3259 c-380 -40 -745 -220 -1019 -504 -62 -63 -117 -136 -117 -155 0 -6 40 24 88 67 174 154 358 267 550 339 81 31 104 30 30 -1 -173 -71 -365 -193 -461 -291 -158 -162 -325 -383 -365 -484 -28 -71 -78 -269 -103 -410 -16 -89 -17 -368 -1 -460 24 -135 63 -262 112 -365 103 -214 146 -205 76 16 -59 185 -70 254 -70 459 -1 159 2 200 22 290 64 286 209 540 426 748 95 91 245 194 358 247 197 90 602 137 783 89 44 -12 -156 -33 -317 -33 -144 -1 -186 -8 -348 -58 -232 -71 -386 -172 -542 -356 -92 -109 -138 -180 -203 -312 -154 -314 -173 -712 -51 -1033 71 -185 141 -300 268 -442 101 -111 186 -182 300 -251 83 -49 213 -98 226 -84 8 8 -2 16 -124 95 -102 66 -288 251 -319 317 -9 21 -28 49 -40 63 -27 30 -159 311 -175 372 -6 24 -14 52 -17 63 -5 17 -2 16 15 -5 12 -14 21 -21 22 -17 1 22 -26 105 -42 132 -15 25 -18 52 -18 167 0 83 6 165 15 208 16 77 61 218 75 235 4 5 22 43 39 84 31 73 103 184 137 212 10 7 4 -4 -13 -26 -31 -39 -113 -178 -113 -191 0 -3 7 -4 15 0 25 9 17 -21 -10 -41 -20 -15 -31 -43 -60 -153 -63 -243 -65 -384 -11 -617 43 -181 89 -282 204 -443 69 -97 117 -146 221 -224 195 -148 328 -215 517 -263 101 -26 123 -28 309 -28 216 0 296 11 445 62 143 49 278 128 256 150 -4 5 -50 -7 -102 -25 -182 -64 -284 -84 -451 -87 -121 -2 -155 0 -164 11 -6 8 -30 14 -54 14 -80 0 -327 74 -289 87 6 2 50 -8 98 -22 126 -36 194 -45 347 -45 210 0 357 32 534 115 190 90 311 188 434 351 94 126 158 246 202 379 31 94 33 109 35 260 1 88 0 154 -3 148 -11 -29 -23 -10 -22 35 2 46 2 46 9 12 4 -19 8 -30 9 -25 1 6 9 -2 17 -17 17 -33 28 -35 51 -9 56 66 87 225 81 412 -4 116 -9 147 -36 229 -96 287 -362 615 -632 777 -309 186 -680 269 -1034 232z m362 -446 c-21 -2 -57 -2 -80 0 -24 2 -7 4 37 4 44 0 63 -2 43 -4z m-761 -176 c13 5 15 2 9 -13 -19 -49 -18 -69 7 -92 27 -26 49 -13 26 15 -11 13 -11 15 6 12 14 -3 21 -14 23 -35 3 -26 12 -35 67 -65 42 -22 65 -40 65 -51 0 -13 8 -18 28 -18 20 0 31 -7 40 -27 7 -16 21 -42 31 -59 l17 -32 12 30 c8 23 16 29 34 26 12 -2 28 -13 34 -26 9 -19 13 -20 17 -7 4 8 19 21 34 27 15 7 41 23 57 36 23 18 38 23 63 19 18 -3 35 -1 38 4 4 5 18 9 33 9 20 0 48 20 102 71 80 76 112 95 205 128 141 50 274 1 168 -62 -124 -72 -286 -188 -388 -278 -98 -86 -115 -105 -96 -107 12 -2 27 -14 32 -26 8 -16 17 -22 33 -19 16 3 30 -4 48 -25 23 -28 27 -29 41 -15 20 20 44 11 65 -27 13 -22 23 -29 42 -27 19 1 26 -3 28 -20 4 -27 10 -28 34 -6 41 37 74 -28 45 -86 -15 -29 -15 -30 10 -20 62 23 99 -2 91 -62 -3 -16 -4 -29 -2 -29 1 0 17 6 36 14 44 19 63 8 55 -32 l-6 -30 36 10 c19 5 46 7 58 4 23 -6 41 -38 37 -63 -2 -8 7 -13 21 -13 27 0 52 -23 42 -40 -3 -6 3 -10 15 -10 12 0 34 -13 50 -29 19 -18 43 -30 71 -34 41 -5 68 -21 57 -33 -4 -3 -55 -16 -114 -30 -59 -13 -110 -26 -112 -29 -3 -3 24 -5 60 -5 37 0 93 -9 129 -20 67 -20 147 -76 132 -91 -5 -5 -54 -3 -114 6 -117 16 -259 20 -259 6 0 -5 38 -12 85 -16 61 -5 101 -15 142 -35 71 -33 163 -105 163 -126 0 -18 -11 -16 -120 26 -41 16 -108 38 -148 49 -70 19 -74 19 -91 2 -17 -17 -15 -19 47 -52 103 -54 201 -159 150 -159 -7 0 -65 30 -128 66 -113 64 -114 65 -79 27 20 -21 42 -48 48 -61 16 -30 6 -45 -22 -31 -21 12 -21 12 -4 -14 19 -29 22 -47 7 -47 -5 0 -67 39 -137 87 -124 84 -177 112 -218 113 -11 0 30 -24 91 -54 101 -50 116 -61 165 -123 66 -82 89 -117 89 -137 0 -24 -27 -9 -132 75 -123 98 -224 158 -338 200 -24 9 -24 8 -5 -6 94 -71 136 -110 187 -173 68 -86 88 -121 88 -157 0 -50 -23 -32 -164 129 -90 102 -147 150 -241 206 l-40 24 57 -61 c85 -91 188 -262 188 -313 0 -31 -36 3 -115 108 -49 64 -109 141 -134 170 -54 63 -173 154 -206 157 -30 4 -179 81 -217 113 -16 14 -42 52 -57 86 -39 85 -46 90 -112 69 -33 -10 -92 -16 -154 -17 -93 -1 -104 1 -154 29 -30 16 -75 54 -100 84 -46 54 -57 65 -132 130 -76 65 -28 96 77 49 38 -16 69 -21 136 -21 78 0 94 3 152 32 76 37 107 73 165 188 l41 83 -12 71 c-11 67 -3 179 17 231 5 12 -6 17 -57 22 -70 8 -148 40 -148 62 0 18 18 18 36 -1 16 -16 64 -21 64 -7 0 23 -28 63 -51 72 -35 15 -107 91 -106 113 0 20 27 24 27 4 0 -22 47 -60 66 -53 12 5 15 14 11 35 -6 27 4 54 11 32 2 -5 11 -7 19 -4z m-358 -469 c-22 -40 -49 -82 -60 -93 -20 -20 32 79 73 138 33 47 28 30 -13 -45z m2268 -810 c-12 -81 -25 -130 -37 -138 -4 -3 -15 -18 -24 -35 -10 -16 -14 -21 -10 -10 46 132 64 189 64 205 0 11 3 20 6 20 4 0 4 -19 1 -42z m-1657 -903 c0 -14 -32 -2 -57 20 l-28 26 43 -21 c23 -11 42 -23 42 -25z"/>
<path d="M1270 2450 c0 -17 32 -40 56 -40 12 0 1 25 -18 41 -27 24 -38 24 -38 -1z"/>
</g>


</svg>