<?xml version="1.0" encoding="utf-8"?>
<!DOCTYPE svg PUBLIC "-//W3C//DTD SVG 20010904//EN" "http://www.w3.org/TR/2001/REC-SVG-20010904/DTD/svg10.dtd">
<svg version="1.0" xmlns="http://www.w3.org/2000/svg" width="1050px" height="379px" viewBox="0 0 1050 379" preserveAspectRatio="xMidYMid meet">
 <g fill="#100f0d">
  <path d="M219 323.7 c0 -2.1 16 -138 16.3 -138.3 0.3 -0.3 69.7 31.9 111.2 51.6 5 2.3 16.7 7.8 26 12.2 9.4 4.4 17.3 8.3 17.7 8.6 0.5 0.5 -102.7 40.6 -169.9 65.9 -0.7 0.3 -1.3 0.3 -1.3 0z"/>
  <path d="M21.5 187.3 c1.1 -0.3 43.4 -10.4 94 -22.4 68.3 -16.2 92.2 -21.5 92.7 -20.6 0.4 0.7 6.3 9.8 13.1 20.2 l12.3 19 -34.5 0.7 c-94.7 1.8 -146.2 2.8 -162.1 3.2 -9.6 0.3 -16.6 0.2 -15.5 -0.1z"/>
  <path d="M108.2 142 l77.7 -39 23.3 -2.5 c12.8 -1.4 25.3 -2.7 27.8 -3 2.9 -0.3 -33.2 14.6 -100.5 41.5 -57.7 23.1 -105.2 42 -105.5 41.9 -0.3 0 34.5 -17.5 77.2 -38.9z"/>
  <path d="M247.9 92.8 c6.9 -17.2 18.4 -44.5 19.1 -45.2 0.4 -0.4 20.2 3.3 45 8.5 43.7 9.3 44.2 9.4 39.9 10.7 -6 1.7 -103.9 28.2 -104.4 28.2 -0.3 0 0 -1 0.4 -2.2z"/>
 </g>
 <g fill="#000000">
  <path d="M553.5 250.6 c-15.5 -3.8 -29 -16.3 -35.6 -33.1 -2 -5.1 -2.3 -7.8 -2.3 -18 0 -13.4 1.5 -19 8 -29.3 6.8 -10.6 19.1 -19.4 31.2 -22.2 7.1 -1.6 19.2 -0.8 26.4 1.8 6.8 2.4 16.8 9.2 20.2 13.7 l2.5 3.2 -2.2 2 c-1.2 1.1 -4.1 3.4 -6.5 5.3 l-4.3 3.3 -4.2 -4.1 c-2.3 -2.3 -6.2 -5 -8.7 -6.1 -5.6 -2.5 -15.7 -2.8 -22.3 -0.5 -6.3 2.1 -13.7 9 -17.2 16.1 -2.8 5.4 -3 6.6 -3 16.8 0 10.1 0.2 11.5 2.8 16.5 7.5 14.7 22 21.7 36.2 17.5 4.8 -1.3 7 -2.8 12.1 -7.9 l6.2 -6.2 6.3 5.6 6.4 5.7 -3.5 3.9 c-12.4 14.2 -30.9 20.3 -48.5 16z"/>
  <path d="M738.1 250.4 c-12.8 -3.4 -26.1 -14.4 -31.9 -26.4 -3.4 -6.9 -6.2 -17.9 -6.2 -24.5 0 -6.6 2.8 -17.6 6.2 -24.5 3.7 -7.7 13.9 -18.2 21.4 -22.2 27.3 -14.6 59.8 -0.7 70.5 30.2 3.3 9.6 3.2 23.9 -0.3 33.6 -9.2 26 -34.8 40.5 -59.7 33.8z m24.6 -18.7 c9.5 -4.9 16.3 -15.6 17.9 -28.2 1.3 -10.6 -3.6 -24.6 -10.9 -31.2 -15.4 -13.9 -37.2 -8.5 -46.6 11.6 -2.2 4.9 -2.6 6.9 -2.6 15.6 0 8.7 0.4 10.7 2.6 15.6 4.5 9.5 11.6 16 20.9 19 4.4 1.5 13.3 0.3 18.7 -2.4z"/>
  <path d="M629 199.5 l0 -50.6 7.6 0.3 7.6 0.3 1.8 4.9 c1.1 2.6 2.1 5 2.4 5.3 0.2 0.3 2.2 -1.3 4.3 -3.4 2.1 -2.1 6.1 -5 8.8 -6.3 4.4 -2.2 6.3 -2.5 16.7 -2.5 6.5 0 12.1 0.4 12.6 1 0.6 0.6 0 4.3 -1.5 9.7 l-2.5 8.6 -3 -1 c-1.6 -0.6 -6.1 -0.8 -9.8 -0.6 -12.7 0.9 -22.8 9.3 -25 20.8 -0.6 2.9 -1 18.5 -1 34.6 l0 29.4 -9.5 0 -9.5 0 0 -50.5z"/>
  <path d="M826.4 199.8 l-16.9 -50.3 9.9 -0.3 c6.6 -0.2 10.2 0.1 10.6 0.9 0.4 0.6 5.9 17.7 12.1 38 6.3 20.3 11.7 36.9 12 36.9 0.6 0 13.7 -39.4 23 -68.7 l2.3 -7.3 8.7 0 8.8 0 12.1 37.3 c6.7 20.4 12.5 37.5 12.9 38 0.4 0.4 5.9 -16 12.2 -36.4 6.3 -20.4 11.7 -37.5 12 -38 0.3 -0.6 4.9 -0.8 10.6 -0.7 l10.1 0.3 -17 50.3 -17 50.2 -10.7 0 -10.6 0 -10.7 -31.8 c-6 -17.4 -11.1 -33.6 -11.4 -35.9 -0.7 -4.6 -2.4 -4.9 -2.4 -0.5 0 1.5 -4.9 17.3 -10.8 35.2 l-10.8 32.5 -11.1 0.3 -11.1 0.3 -16.8 -50.3z"/>
 </g>
 <g fill="#212832">
  <path d="M206.8 232.1 l-15.6 -47.1 21.5 0 21.5 0 -0.6 4.3 c-0.3 2.3 -2.6 22.2 -5.1 44.2 -2.5 22 -4.9 41.3 -5.3 42.8 -0.6 2.3 -3.5 -5.7 -16.4 -44.2z"/>
  <path d="M412 230.4 c-32.7 -26.7 -83.1 -67.7 -111.9 -91.2 -43 -35 -52 -42.7 -50.5 -43.4 1.1 -0.4 23.7 -6.7 50.4 -13.8 26.7 -7.2 50.6 -13.7 53.2 -14.5 l4.7 -1.4 3 5.2 c1.6 2.9 25.9 48 54.1 100.2 28.1 52.3 52.7 97.8 54.6 101.3 1.9 3.4 3.1 6.2 2.7 6.1 -0.4 0 -27.6 -21.9 -60.3 -48.5z"/>
  <path d="M225.9 169.5 c-4.6 -7.1 -10.4 -16.1 -12.9 -20 l-4.6 -7 18.1 -21.9 c9.9 -12 18.1 -21.2 18.2 -20.5 0.2 0.8 -2.1 19.6 -5 41.9 l-5.3 40.5 -8.5 -13z"/>
  <path d="M226 75.2 c21.2 -14.9 38.6 -26.9 38.7 -26.8 0.2 0.1 -4.1 10.8 -9.4 23.7 l-9.6 23.5 -26.6 2.8 c-14.6 1.5 -27.7 3 -29.1 3.3 -1.4 0.3 14.8 -11.6 36 -26.5z"/>
 </g>
 <g fill="#303d4d">
  <path d="M427.5 273.9 c-45.6 -21.5 -107.5 -50.5 -137.5 -64.5 -29.9 -14 -54.5 -25.6 -54.6 -25.7 -0.2 -0.2 9.8 -78.3 10.8 -84.9 0.2 -1.3 14.6 9.9 50.9 39.5 27.9 22.7 87.4 71 132.3 107.5 70.1 57 83 67.6 81.4 67.1 -0.2 0 -37.6 -17.6 -83.3 -39z"/>
 </g>
 <g fill="#ffde59">
  <path d="M24 185.2 c0.8 -0.5 27.4 -11.2 59 -23.7 31.6 -12.5 80.4 -31.9 108.4 -43.1 28.1 -11.2 51.1 -20.2 51.4 -20 0.2 0.3 -30.4 38.2 -34.8 42.9 -0.4 0.5 -41.4 10.5 -91.1 22.3 -49.7 11.8 -91.3 21.7 -92.4 22 -1.5 0.4 -1.6 0.3 -0.5 -0.4z"/>
 </g>
</svg>